<svg version="1.1" viewBox="0.0 0.0 428.8608923884514 350.7217847769029" fill="none" stroke="none" stroke-linecap="square" stroke-miterlimit="10" xmlns:xlink="http://www.w3.org/1999/xlink" xmlns="http://www.w3.org/2000/svg"><clipPath id="p.0"><path d="m0 0l428.8609 0l0 350.72177l-428.8609 0l0 -350.72177z" clip-rule="nonzero"/></clipPath><g clip-path="url(#p.0)"><path fill="#000000" fill-opacity="0.0" d="m0 0l428.8609 0l0 350.72177l-428.8609 0z" fill-rule="evenodd"/><path fill="#d9ead3" d="m298.61002 42.548264l36.427277 63.107933l-109.445816 63.174522l-36.427277 -63.107933z" fill-rule="evenodd"/><path stroke="#000000" stroke-width="1.0" stroke-linejoin="round" stroke-linecap="butt" d="m298.61002 42.548264l36.427277 63.107933l-109.445816 63.174522l-36.427277 -63.107933z" fill-rule="evenodd"/><path fill="#d9ead3" d="m244.02837 74.05398l72.79527 0.04824829l-36.36798 63.059685z" fill-rule="evenodd"/><path stroke="#000000" stroke-width="1.0" stroke-linejoin="round" stroke-linecap="butt" d="m244.02837 74.05398l72.79527 0.04824829l-36.36798 63.059685z" fill-rule="evenodd"/><path fill="#000000" fill-opacity="0.0" d="m262.242 105.60794l105.85828 -61.133858" fill-rule="evenodd"/><path stroke="#ff0000" stroke-width="3.0" stroke-linejoin="round" stroke-linecap="butt" d="m262.24203 105.60794l90.27084 -52.132023" fill-rule="evenodd"/><path fill="#ff0000" stroke="#ff0000" stroke-width="3.0" stroke-linecap="butt" d="m354.99097 57.766953l9.311432 -11.099567l-14.267639 2.5174942z" fill-rule="evenodd"/><path fill="#000000" fill-opacity="0.0" d="m262.242 105.60794l50.771667 87.93701" fill-rule="evenodd"/><path stroke="#00b900" stroke-width="3.0" stroke-linejoin="round" stroke-linecap="butt" d="m262.24203 105.60794l41.771484 72.34865" fill-rule="evenodd"/><path fill="#00b900" stroke="#00b900" stroke-width="3.0" stroke-linecap="butt" d="m299.72223 180.43422l11.098541 9.312622l-2.5159607 -14.267899z" fill-rule="evenodd"/><path fill="#000000" fill-opacity="0.0" d="m46.394947 248.2498l0 -122.23623" fill-rule="evenodd"/><path stroke="#00b900" stroke-width="3.0" stroke-linejoin="round" stroke-linecap="butt" d="m46.394947 248.2498l0 -104.23622" fill-rule="evenodd"/><path fill="#00b900" stroke="#00b900" stroke-width="3.0" stroke-linecap="butt" d="m51.350143 144.01358l-4.9551964 -13.614304l-4.9551964 13.614304z" fill-rule="evenodd"/><path fill="#000000" fill-opacity="0.0" d="m45.04462 246.40945l115.84253 0" fill-rule="evenodd"/><path stroke="#ff0000" stroke-width="3.0" stroke-linejoin="round" stroke-linecap="butt" d="m45.04462 246.40945l97.84253 0" fill-rule="evenodd"/><path fill="#ff0000" stroke="#ff0000" stroke-width="3.0" stroke-linecap="butt" d="m142.88715 251.36464l13.614288 -4.955185l-13.614288 -4.9552z" fill-rule="evenodd"/><path fill="#000000" fill-opacity="0.0" d="m124.761154 254.50656l36.12599 0l0 46.86615l-36.12599 0z" fill-rule="evenodd"/><path fill="#ff0000" d="m140.57365 278.32907l-2.328125 -5.4375q-0.625 -1.4375 -1.015625 -1.78125q-0.375 -0.359375 -1.1875 -0.4375l0 -0.40625l6.625 0l-0.125 0.40625q-0.6875 0.0625 -0.9375 0.28125q-0.25 0.21875 -0.25 0.578125q0 0.4375 0.390625 1.359375l1.328125 3.140625l1.84375 -1.703125q1.5625 -1.390625 1.984375 -2.09375q0.25 -0.40625 0.25 -0.734375q0 -0.3125 -0.265625 -0.546875q-0.265625 -0.25 -0.875 -0.28125l0.140625 -0.40625l4.90625 0l-0.109375 0.40625q-0.546875 0.109375 -1.015625 0.40625q-0.734375 0.46875 -2.46875 2.0625l-4.046875 3.703125l2.265625 5.28125q0.796875 1.796875 1.1875 2.1875q0.390625 0.390625 1.15625 0.546875l-0.109375 0.40625l-6.640625 0l0.125 -0.40625q0.703125 -0.015625 1.015625 -0.28125q0.328125 -0.28125 0.328125 -0.671875q0 -0.546875 -0.625 -1.953125l-1.21875 -2.828125l-2.765625 2.578125q-1.3125 1.21875 -1.53125 1.59375q-0.203125 0.359375 -0.203125 0.703125q0 0.328125 0.296875 0.578125q0.3125 0.25 1.015625 0.28125l-0.125 0.40625l-5.203125 0l0.109375 -0.40625q0.59375 -0.109375 1.015625 -0.375q1.03125 -0.609375 2.53125 -2.0l4.53125 -4.15625z" fill-rule="nonzero"/><path fill="#000000" fill-opacity="0.0" d="m0 117.10761l36.125984 0l0 46.866142l-36.125984 0z" fill-rule="evenodd"/><path fill="#00b900" d="m15.0 141.24261l-1.265625 -5.46875q-0.328125 -1.40625 -0.78125 -1.9375q-0.328125 -0.390625 -1.25 -0.5625l0.125 -0.40625l7.203125 0l-0.125 0.40625q-1.0625 0 -1.546875 0.4375q-0.46875 0.421875 -0.46875 1.0q0 0.375 0.203125 1.28125l0.96875 4.4375l2.421875 -3.34375q0.921875 -1.28125 1.15625 -1.8125q0.234375 -0.53125 0.234375 -0.921875q0 -0.40625 -0.296875 -0.703125q-0.296875 -0.296875 -0.96875 -0.375l0.125 -0.40625l4.5 0l0 0.40625q-0.609375 0.0625 -1.046875 0.40625q-0.4375 0.328125 -1.71875 2.09375l-4.265625 5.859375l-1.0 3.484375q-0.3125 1.0625 -0.3125 1.25q0 0.46875 0.359375 0.78125q0.375 0.3125 1.234375 0.3125l0.421875 0l-0.125 0.40625l-7.671875 0l0.109375 -0.40625q0.828125 0.015625 1.34375 -0.21875q0.515625 -0.25 0.765625 -0.625q0.171875 -0.265625 0.515625 -1.421875l1.15625 -3.953125z" fill-rule="nonzero"/><path fill="#000000" fill-opacity="0.0" d="m341.17584 0l36.126007 0l0 46.866142l-36.126007 0z" fill-rule="evenodd"/><path fill="#ff0000" d="m351.2071 21.166248l3.859375 -0.65625q1.046875 1.640625 1.484375 3.625q1.078125 -1.609375 1.640625 -2.25q0.734375 -0.859375 1.21875 -1.109375q0.484375 -0.265625 1.015625 -0.265625q0.609375 0 0.9375 0.328125q0.328125 0.328125 0.328125 0.890625q0 0.53125 -0.328125 0.875q-0.328125 0.328125 -0.8125 0.328125q-0.359375 0 -0.8125 -0.125q-0.453125 -0.125 -0.640625 -0.125q-0.453125 0 -0.875 0.328125q-0.578125 0.453125 -1.421875 1.9375q0.9375 3.328125 1.5 4.046875q0.34375 0.4375 0.6875 0.4375q0.28125 0 0.484375 -0.140625q0.328125 -0.234375 0.984375 -1.171875l0.40625 0.234375q-0.96875 1.578125 -1.90625 2.21875q-0.703125 0.5 -1.390625 0.5q-0.703125 0 -1.1875 -0.3125q-0.46875 -0.328125 -0.828125 -1.03125q-0.359375 -0.71875 -0.859375 -2.28125q-1.296875 1.640625 -2.03125 2.40625q-0.734375 0.75 -1.21875 0.984375q-0.484375 0.234375 -1.046875 0.234375q-0.578125 0 -0.90625 -0.328125q-0.34375 -0.34375 -0.34375 -0.875q0 -0.5625 0.375 -0.921875q0.359375 -0.359375 0.921875 -0.359375q0.296875 0 0.671875 0.171875q0.5625 0.265625 0.796875 0.265625q0.328125 0 0.578125 -0.140625q0.328125 -0.15625 0.84375 -0.71875q0.3125 -0.34375 1.140625 -1.453125q-1.0625 -3.9375 -1.65625 -4.71875q-0.390625 -0.5 -0.953125 -0.5q-0.296875 0 -0.734375 0.09375l0.078125 -0.421875z" fill-rule="nonzero"/><path fill="#000000" fill-opacity="0.0" d="m313.042 164.3412l36.125977 0l0 46.86615l-36.125977 0z" fill-rule="evenodd"/><path fill="#00b900" d="m322.62012 185.83559l3.40625 -0.984375q0.40625 0.5 0.578125 0.953125q0.296875 0.796875 0.421875 2.171875q0.21875 2.71875 0.3125 5.8125q1.1875 -1.5625 2.71875 -4.125q0.453125 -0.78125 0.453125 -1.46875q0 -0.421875 -0.53125 -0.8125q-0.53125 -0.390625 -0.671875 -0.609375q-0.125 -0.21875 -0.125 -0.5625q0 -0.546875 0.390625 -0.953125q0.40625 -0.40625 0.984375 -0.40625q0.609375 0 1.046875 0.46875q0.453125 0.453125 0.453125 1.09375q0 0.734375 -0.421875 1.71875q-0.40625 0.96875 -1.921875 3.34375q-1.96875 3.046875 -3.84375 5.265625q-1.203125 1.421875 -1.953125 2.046875q-0.734375 0.625 -1.53125 0.984375q-0.46875 0.21875 -0.9375 0.21875q-0.640625 0 -1.078125 -0.453125q-0.453125 -0.4375 -0.453125 -1.046875q0 -0.609375 0.40625 -1.03125q0.40625 -0.40625 0.9375 -0.40625q0.6875 0 1.25 0.703125q0.375 0.46875 0.609375 0.46875q0.265625 0 0.5 -0.140625q0.328125 -0.171875 0.9375 -0.8125q0.0625 -1.390625 0.0625 -2.09375q0 -0.953125 -0.09375 -2.671875l-0.1875 -4.21875q-0.09375 -1.15625 -0.5 -1.671875q-0.296875 -0.375 -0.796875 -0.375q-0.1875 0 -0.421875 0.03125l0 -0.4375z" fill-rule="nonzero"/><path fill="#000000" fill-opacity="0.0" d="m262.242 105.60794l117.82678 0" fill-rule="evenodd"/><path stroke="#ff0000" stroke-width="3.0" stroke-linejoin="round" stroke-linecap="butt" stroke-dasharray="12.0,9.0" d="m262.242 105.60794l117.82678 0" fill-rule="evenodd"/><path fill="#000000" fill-opacity="0.0" d="m338.07086 105.338585c5.548279 -11.096565 3.6853027 -28.891647 -5.91864 -36.745407" fill-rule="evenodd"/><path stroke="#0000ff" stroke-width="3.0" stroke-linejoin="round" stroke-linecap="butt" d="m338.07086 105.338585c2.77417 -5.548294 3.6954956 -12.771194 2.7227783 -19.58876c-0.030395508 -0.21305084 -0.06265259 -0.42569733 -0.09674072 -0.6378937l-0.10525513 -0.61981964" fill-rule="evenodd"/><path fill="#0000ff" stroke="#0000ff" stroke-width="3.0" stroke-linecap="butt" d="m344.96844 82.16884l-10.759949 -9.701881l2.0063477 14.348434z" fill-rule="evenodd"/><path fill="#000000" fill-opacity="0.0" d="m351.0 58.737534l39.275604 0l0 46.866142l-39.275604 0z" fill-rule="evenodd"/><path fill="#0000ff" d="m367.0 85.43503l-6.453125 0l0 -2.28125l6.453125 0l0 2.28125z" fill-rule="nonzero"/><path fill="#0000ff" d="m376.5447 79.56003l-6.296875 7.421875q0.71875 0.203125 1.0625 0.625q0.4375 0.546875 0.640625 1.65625q0.203125 1.09375 0.453125 1.390625q0.25 0.296875 0.515625 0.296875q0.171875 0 0.328125 -0.171875q0.15625 -0.15625 0.15625 -0.359375q0 -0.203125 -0.125 -0.671875q-0.09375 -0.328125 -0.09375 -0.625q0 -0.625 0.390625 -1.046875q0.390625 -0.421875 0.953125 -0.421875q0.5 0 0.828125 0.375q0.34375 0.375 0.34375 0.96875q0 0.921875 -0.84375 1.671875q-0.84375 0.75 -2.0625 0.75q-1.421875 0 -2.78125 -1.296875q-0.5625 -0.53125 -0.890625 -0.71875q-0.203125 -0.09375 -0.515625 -0.09375q-0.265625 0 -0.59375 0.1875l-0.703125 0l6.421875 -7.609375l-2.296875 0q-1.0 0 -1.4375 0.25q-0.421875 0.234375 -0.8125 0.9375l-0.484375 0l0.921875 -3.515625l6.921875 0z" fill-rule="nonzero"/><path fill="#000000" fill-opacity="0.0" d="m8.926509 304.33334l202.42519 0l0 46.86612l-202.42519 0z" fill-rule="evenodd"/><path fill="#000000" d="m28.285885 330.0777l-5.796875 0l-1.015625 2.359375q-0.390625 0.875 -0.390625 1.3125q0 0.34375 0.328125 0.609375q0.328125 0.25 1.421875 0.328125l0 0.40625l-4.734375 0l0 -0.40625q0.953125 -0.171875 1.21875 -0.4375q0.5625 -0.53125 1.25 -2.15625l5.28125 -12.34375l0.390625 0l5.21875 12.484375q0.625 1.5 1.140625 1.953125q0.515625 0.4375 1.4375 0.5l0 0.40625l-5.921875 0l0 -0.40625q0.890625 -0.046875 1.203125 -0.296875q0.328125 -0.265625 0.328125 -0.625q0 -0.484375 -0.453125 -1.53125l-0.90625 -2.15625zm-0.296875 -0.828125l-2.546875 -6.0625l-2.609375 6.0625l5.15625 0zm9.970993 -4.59375l0 2.28125q1.265625 -2.28125 2.609375 -2.28125q0.609375 0 1.0 0.375q0.40625 0.375 0.40625 0.859375q0 0.4375 -0.296875 0.734375q-0.28125 0.296875 -0.671875 0.296875q-0.390625 0 -0.875 -0.375q-0.484375 -0.390625 -0.703125 -0.390625q-0.203125 0 -0.4375 0.21875q-0.5 0.453125 -1.03125 1.5l0 4.84375q0 0.84375 0.21875 1.28125q0.140625 0.296875 0.5 0.5q0.359375 0.203125 1.046875 0.203125l0 0.390625l-5.1875 0l0 -0.390625q0.78125 0 1.15625 -0.25q0.28125 -0.171875 0.390625 -0.5625q0.046875 -0.1875 0.046875 -1.078125l0 -3.921875q0 -1.765625 -0.078125 -2.109375q-0.0625 -0.34375 -0.265625 -0.484375q-0.1875 -0.15625 -0.46875 -0.15625q-0.34375 0 -0.78125 0.15625l-0.109375 -0.390625l3.0625 -1.25l0.46875 0zm6.2790833 4.125q0 2.25 1.09375 3.53125q1.109375 1.28125 2.609375 1.28125q1.0 0 1.734375 -0.546875q0.734375 -0.546875 1.234375 -1.875l0.34375 0.234375q-0.234375 1.515625 -1.359375 2.765625q-1.109375 1.234375 -2.796875 1.234375q-1.828125 0 -3.125 -1.421875q-1.296875 -1.421875 -1.296875 -3.828125q0 -2.59375 1.328125 -4.046875q1.328125 -1.453125 3.34375 -1.453125q1.703125 0 2.796875 1.125q1.109375 1.109375 1.109375 3.0l-7.015625 0zm0 -0.640625l4.703125 0q-0.0625 -0.984375 -0.234375 -1.375q-0.28125 -0.625 -0.828125 -0.96875q-0.546875 -0.359375 -1.140625 -0.359375q-0.921875 0 -1.65625 0.71875q-0.71875 0.703125 -0.84375 1.984375zm11.305923 -1.328125q1.78125 -2.15625 3.40625 -2.15625q0.828125 0 1.421875 0.421875q0.59375 0.40625 0.953125 1.359375q0.25 0.671875 0.25 2.046875l0 4.3125q0 0.96875 0.140625 1.3125q0.125 0.28125 0.390625 0.4375q0.28125 0.15625 1.015625 0.15625l0 0.390625l-5.015625 0l0 -0.390625l0.203125 0q0.71875 0 1.0 -0.21875q0.28125 -0.21875 0.390625 -0.640625q0.046875 -0.171875 0.046875 -1.046875l0 -4.140625q0 -1.390625 -0.359375 -2.015625q-0.359375 -0.625 -1.21875 -0.625q-1.3125 0 -2.625 1.4375l0 5.34375q0 1.03125 0.125 1.28125q0.15625 0.3125 0.421875 0.46875q0.28125 0.15625 1.109375 0.15625l0 0.390625l-5.015625 0l0 -0.390625l0.21875 0q0.78125 0 1.046875 -0.390625q0.28125 -0.40625 0.28125 -1.515625l0 -3.75q0 -1.828125 -0.09375 -2.21875q-0.078125 -0.40625 -0.25 -0.546875q-0.171875 -0.140625 -0.453125 -0.140625q-0.3125 0 -0.75 0.15625l-0.171875 -0.390625l3.0625 -1.25l0.46875 0l0 2.15625zm14.124996 6.828125q-1.5625 1.203125 -1.96875 1.390625q-0.59375 0.265625 -1.265625 0.265625q-1.046875 0 -1.734375 -0.71875q-0.671875 -0.71875 -0.671875 -1.890625q0 -0.734375 0.328125 -1.28125q0.453125 -0.75 1.578125 -1.40625q1.125 -0.671875 3.734375 -1.625l0 -0.390625q0 -1.515625 -0.484375 -2.078125q-0.484375 -0.5625 -1.40625 -0.5625q-0.6875 0 -1.09375 0.375q-0.421875 0.375 -0.421875 0.859375l0.015625 0.640625q0 0.5 -0.265625 0.78125q-0.25 0.28125 -0.671875 0.28125q-0.40625 0 -0.671875 -0.28125q-0.265625 -0.296875 -0.265625 -0.796875q0 -0.953125 0.96875 -1.75q0.984375 -0.796875 2.75 -0.796875q1.34375 0 2.203125 0.453125q0.65625 0.34375 0.96875 1.078125q0.203125 0.46875 0.203125 1.953125l0 3.4375q0 1.453125 0.046875 1.78125q0.0625 0.3125 0.1875 0.4375q0.125 0.109375 0.296875 0.109375q0.171875 0 0.296875 -0.078125q0.234375 -0.15625 0.90625 -0.8125l0 0.625q-1.25 1.65625 -2.375 1.65625q-0.53125 0 -0.859375 -0.375q-0.328125 -0.375 -0.328125 -1.28125zm0 -0.71875l0 -3.875q-1.671875 0.671875 -2.15625 0.953125q-0.875 0.484375 -1.25 1.015625q-0.375 0.53125 -0.375 1.15625q0 0.796875 0.46875 1.328125q0.484375 0.515625 1.09375 0.515625q0.84375 0 2.21875 -1.09375zm13.907486 -12.015625l0 5.90625l2.734375 0q0.9375 0 1.375 -0.40625q0.4375 -0.421875 0.578125 -1.65625l0.40625 0l0 5.078125l-0.40625 0q-0.015625 -0.875 -0.234375 -1.28125q-0.203125 -0.40625 -0.59375 -0.609375q-0.375 -0.21875 -1.125 -0.21875l-2.734375 0l0 4.71875q0 1.140625 0.140625 1.5q0.109375 0.28125 0.46875 0.484375q0.484375 0.265625 1.015625 0.265625l0.53125 0l0 0.40625l-6.4375 0l0 -0.40625l0.53125 0q0.9375 0 1.359375 -0.546875q0.265625 -0.359375 0.265625 -1.703125l0 -9.6875q0 -1.140625 -0.140625 -1.5q-0.125 -0.28125 -0.46875 -0.484375q-0.46875 -0.265625 -1.015625 -0.265625l-0.53125 0l0 -0.40625l11.171875 0l0.140625 3.296875l-0.390625 0q-0.28125 -1.046875 -0.671875 -1.53125q-0.375 -0.5 -0.9375 -0.71875q-0.5625 -0.234375 -1.734375 -0.234375l-3.296875 0zm11.631577 3.75l0 2.28125q1.265625 -2.28125 2.609375 -2.28125q0.609375 0 1.0 0.375q0.40625 0.375 0.40625 0.859375q0 0.4375 -0.296875 0.734375q-0.28125 0.296875 -0.671875 0.296875q-0.390625 0 -0.875 -0.375q-0.484375 -0.390625 -0.703125 -0.390625q-0.203125 0 -0.4375 0.21875q-0.5 0.453125 -1.03125 1.5l0 4.84375q0 0.84375 0.21875 1.28125q0.140625 0.296875 0.5 0.5q0.359375 0.203125 1.046875 0.203125l0 0.390625l-5.1875 0l0 -0.390625q0.78125 0 1.15625 -0.25q0.28125 -0.171875 0.390625 -0.5625q0.046875 -0.1875 0.046875 -1.078125l0 -3.921875q0 -1.765625 -0.078125 -2.109375q-0.0625 -0.34375 -0.265625 -0.484375q-0.1875 -0.15625 -0.46875 -0.15625q-0.34375 0 -0.78125 0.15625l-0.109375 -0.390625l3.0625 -1.25l0.46875 0zm10.325958 8.984375q-1.5625 1.203125 -1.96875 1.390625q-0.59375 0.265625 -1.265625 0.265625q-1.046875 0 -1.734375 -0.71875q-0.671875 -0.71875 -0.671875 -1.890625q0 -0.734375 0.328125 -1.28125q0.453125 -0.75 1.578125 -1.40625q1.125 -0.671875 3.734375 -1.625l0 -0.390625q0 -1.515625 -0.484375 -2.078125q-0.484375 -0.5625 -1.40625 -0.5625q-0.6875 0 -1.09375 0.375q-0.421875 0.375 -0.421875 0.859375l0.015625 0.640625q0 0.5 -0.265625 0.78125q-0.25 0.28125 -0.671875 0.28125q-0.40625 0 -0.671875 -0.28125q-0.265625 -0.296875 -0.265625 -0.796875q0 -0.953125 0.96875 -1.75q0.984375 -0.796875 2.75 -0.796875q1.34375 0 2.203125 0.453125q0.65625 0.34375 0.96875 1.078125q0.203125 0.46875 0.203125 1.953125l0 3.4375q0 1.453125 0.046875 1.78125q0.0625 0.3125 0.1875 0.4375q0.125 0.109375 0.296875 0.109375q0.171875 0 0.296875 -0.078125q0.234375 -0.15625 0.90625 -0.8125l0 0.625q-1.25 1.65625 -2.375 1.65625q-0.53125 0 -0.859375 -0.375q-0.328125 -0.375 -0.328125 -1.28125zm0 -0.71875l0 -3.875q-1.671875 0.671875 -2.15625 0.953125q-0.875 0.484375 -1.25 1.015625q-0.375 0.53125 -0.375 1.15625q0 0.796875 0.46875 1.328125q0.484375 0.515625 1.09375 0.515625q0.84375 0 2.21875 -1.09375zm7.3215485 -6.109375q1.109375 -1.09375 1.296875 -1.265625q0.5 -0.421875 1.078125 -0.65625q0.578125 -0.234375 1.140625 -0.234375q0.953125 0 1.640625 0.5625q0.6875 0.546875 0.921875 1.59375q1.140625 -1.328125 1.921875 -1.734375q0.78125 -0.421875 1.609375 -0.421875q0.8125 0 1.4375 0.421875q0.625 0.40625 0.984375 1.359375q0.25 0.640625 0.25 2.0l0 4.359375q0 0.953125 0.140625 1.3125q0.109375 0.25 0.40625 0.421875q0.296875 0.171875 0.96875 0.171875l0 0.390625l-5.0 0l0 -0.390625l0.21875 0q0.65625 0 1.015625 -0.265625q0.25 -0.171875 0.359375 -0.5625q0.046875 -0.1875 0.046875 -1.078125l0 -4.359375q0 -1.234375 -0.296875 -1.734375q-0.421875 -0.71875 -1.375 -0.71875q-0.59375 0 -1.1875 0.296875q-0.59375 0.296875 -1.421875 1.09375l-0.03125 0.125l0.03125 0.46875l0 4.828125q0 1.046875 0.109375 1.3125q0.109375 0.25 0.421875 0.421875q0.328125 0.171875 1.109375 0.171875l0 0.390625l-5.125 0l0 -0.390625q0.84375 0 1.15625 -0.203125q0.3125 -0.203125 0.4375 -0.59375q0.0625 -0.203125 0.0625 -1.109375l0 -4.359375q0 -1.234375 -0.375 -1.78125q-0.484375 -0.703125 -1.359375 -0.703125q-0.59375 0 -1.171875 0.328125q-0.921875 0.484375 -1.421875 1.09375l0 5.421875q0 1.0 0.140625 1.296875q0.140625 0.296875 0.40625 0.453125q0.265625 0.15625 1.09375 0.15625l0 0.390625l-5.0 0l0 -0.390625q0.6875 0 0.96875 -0.15625q0.28125 -0.15625 0.421875 -0.46875q0.140625 -0.328125 0.140625 -1.28125l0 -3.859375q0 -1.671875 -0.09375 -2.15625q-0.078125 -0.375 -0.25 -0.5q-0.15625 -0.140625 -0.453125 -0.140625q-0.3125 0 -0.734375 0.15625l-0.171875 -0.390625l3.046875 -1.25l0.484375 0l0 2.15625zm16.310265 1.96875q0 2.25 1.09375 3.53125q1.109375 1.28125 2.609375 1.28125q1.0 0 1.734375 -0.546875q0.734375 -0.546875 1.234375 -1.875l0.34375 0.234375q-0.234375 1.515625 -1.359375 2.765625q-1.109375 1.234375 -2.796875 1.234375q-1.828125 0 -3.125 -1.421875q-1.2968826 -1.421875 -1.2968826 -3.828125q0 -2.59375 1.3281326 -4.046875q1.328125 -1.453125 3.34375 -1.453125q1.703125 0 2.796875 1.125q1.109375 1.109375 1.109375 3.0l-7.015625 0zm0 -0.640625l4.703125 0q-0.0625 -0.984375 -0.234375 -1.375q-0.28125 -0.625 -0.828125 -0.96875q-0.546875 -0.359375 -1.140625 -0.359375q-0.921875 0 -1.65625 0.71875q-0.71875 0.703125 -0.84375 1.984375z" fill-rule="nonzero"/><path fill="#000000" d="m154.1837 320.09332l5.078125 0l-0.125 0.40625q-1.0625 0.15625 -1.875 0.65625q-0.796875 0.484375 -2.1875 1.953125l-3.890625 3.984375l1.09375 4.015625q0.15625 0.578125 0.578125 1.78125q0.265625 0.78125 0.53125 1.109375q0.265625 0.3125 0.671875 0.484375q0.40625 0.171875 1.21875 0.203125l-0.125 0.40625l-5.875 0l0.125 -0.40625q0.90625 -0.03125 1.296875 -0.34375q0.296875 -0.21875 0.296875 -0.578125q0 -0.3125 -0.28125 -1.359375l-1.0625 -3.765625l-3.515625 3.546875q-1.015625 1.046875 -1.21875 1.375q-0.125 0.203125 -0.125 0.390625q0 0.328125 0.328125 0.546875q0.15625 0.078125 0.9375 0.1875l-0.109375 0.40625l-4.984375 0l0.125 -0.40625q0.9375 -0.09375 1.53125 -0.4375q0.875 -0.515625 2.421875 -2.0625l4.359375 -4.390625l-1.203125 -4.3125q-0.546875 -2.0 -0.953125 -2.453125q-0.390625 -0.46875 -1.40625 -0.53125l0.109375 -0.40625l5.375 0l-0.140625 0.40625q-0.734375 0 -1.0 0.09375q-0.265625 0.09375 -0.40625 0.296875q-0.125 0.1875 -0.125 0.4375q0 0.265625 0.265625 1.234375l1.015625 3.6875l2.359375 -2.34375q1.390625 -1.390625 1.90625 -2.25q0.1875 -0.296875 0.1875 -0.53125q0 -0.25 -0.203125 -0.390625q-0.296875 -0.203125 -1.125 -0.234375l0.125 -0.40625zm10.05809 7.03125l2.859375 -4.0q1.09375 -1.5625 1.09375 -2.0q0 -0.234375 -0.234375 -0.390625q-0.234375 -0.171875 -1.359375 -0.234375l0.125 -0.40625l4.703125 0l-0.09375 0.40625q-0.671875 0.09375 -0.9375 0.1875q-0.390625 0.171875 -0.78125 0.515625q-0.515625 0.46875 -1.5 1.828125l-3.671875 5.078125l-1.109375 3.703125q-0.40625 1.390625 -0.40625 1.921875q0 0.34375 0.125 0.53125q0.125 0.171875 0.4375 0.28125q0.421875 0.125 1.296875 0.140625l-0.109375 0.40625l-6.328125 0l0.140625 -0.40625q0.9375 -0.03125 1.25 -0.15625q0.5 -0.203125 0.734375 -0.53125q0.375 -0.515625 0.78125 -1.828125l1.3125 -4.375l-1.609375 -5.1875q-0.421875 -1.359375 -0.78125 -1.6875q-0.359375 -0.34375 -1.265625 -0.421875l0.109375 -0.40625l5.546875 0l-0.125 0.40625q-1.046875 0.078125 -1.1875 0.140625q-0.25 0.078125 -0.40625 0.3125q-0.140625 0.21875 -0.140625 0.53125q0 0.453125 0.3125 1.546875l1.21875 4.09375z" fill-rule="nonzero"/><path fill="#000000" fill-opacity="0.0" d="m262.27036 204.23885l202.42517 0l0 46.866135l-202.42517 0z" fill-rule="evenodd"/><path fill="#000000" d="m281.7391 227.34259q1.5625 0.328125 2.328125 1.0625q1.078125 1.015625 1.078125 2.484375q0 1.125 -0.71875 2.15625q-0.703125 1.015625 -1.9375 1.484375q-1.234375 0.46875 -3.765625 0.46875l-7.078125 0l0 -0.40625l0.5625 0q0.9375 0 1.359375 -0.59375q0.25 -0.390625 0.25 -1.65625l0 -9.6875q0 -1.390625 -0.328125 -1.765625q-0.421875 -0.484375 -1.28125 -0.484375l-0.5625 0l0 -0.40625l6.484375 0q1.8125 0 2.90625 0.265625q1.65625 0.390625 2.53125 1.40625q0.875 1.015625 0.875 2.328125q0 1.125 -0.6875 2.015625q-0.6875 0.890625 -2.015625 1.328125zm-5.796875 -0.59375q0.40625 0.078125 0.921875 0.125q0.53125 0.03125 1.171875 0.03125q1.609375 0 2.421875 -0.34375q0.8125 -0.359375 1.234375 -1.078125q0.4375 -0.71875 0.4375 -1.5625q0 -1.328125 -1.078125 -2.25q-1.0625 -0.9375 -3.125 -0.9375q-1.109375 0 -1.984375 0.25l0 5.765625zm0 7.171875q1.28125 0.296875 2.53125 0.296875q2.0 0 3.046875 -0.90625q1.0625 -0.90625 1.0625 -2.234375q0 -0.875 -0.484375 -1.671875q-0.46875 -0.8125 -1.546875 -1.265625q-1.078125 -0.46875 -2.65625 -0.46875q-0.6875 0 -1.171875 0.015625q-0.484375 0.015625 -0.78125 0.078125l0 6.15625zm16.111542 -9.359375q2.296875 0 3.6875 1.75q1.1875 1.5 1.1875 3.4375q0 1.359375 -0.65625 2.75q-0.65625 1.390625 -1.796875 2.109375q-1.140625 0.703125 -2.546875 0.703125q-2.296875 0 -3.640625 -1.828125q-1.140625 -1.53125 -1.140625 -3.453125q0 -1.390625 0.6875 -2.765625q0.6875 -1.375 1.8125 -2.03125q1.140625 -0.671875 2.40625 -0.671875zm-0.34375 0.71875q-0.59375 0 -1.1875 0.359375q-0.59375 0.34375 -0.953125 1.21875q-0.359375 0.875 -0.359375 2.25q0 2.203125 0.875 3.8125q0.875 1.609375 2.3125 1.609375q1.078125 0 1.765625 -0.890625q0.703125 -0.890625 0.703125 -3.046875q0 -2.703125 -1.15625 -4.25q-0.796875 -1.0625 -2.0 -1.0625zm13.859375 8.578125q-0.734375 0.78125 -1.453125 1.125q-0.703125 0.328125 -1.515625 0.328125q-1.65625 0 -2.90625 -1.390625q-1.234375 -1.390625 -1.234375 -3.5625q0 -2.1875 1.375 -3.984375q1.375 -1.8125 3.53125 -1.8125q1.328125 0 2.203125 0.84375l0 -1.859375q0 -1.75 -0.078125 -2.140625q-0.078125 -0.40625 -0.265625 -0.546875q-0.171875 -0.140625 -0.4375 -0.140625q-0.28125 0 -0.765625 0.171875l-0.140625 -0.375l3.015625 -1.25l0.5 0l0 11.71875q0 1.78125 0.078125 2.171875q0.09375 0.390625 0.265625 0.546875q0.1875 0.15625 0.4375 0.15625q0.296875 0 0.796875 -0.1875l0.125 0.390625l-3.015625 1.25l-0.515625 0l0 -1.453125zm0 -0.765625l0 -5.234375q-0.0625 -0.75 -0.390625 -1.359375q-0.328125 -0.625 -0.875 -0.9375q-0.546875 -0.3125 -1.078125 -0.3125q-0.96875 0 -1.734375 0.859375q-1.0 1.15625 -1.0 3.375q0 2.234375 0.96875 3.421875q0.96875 1.1875 2.171875 1.1875q1.0 0 1.9375 -1.0zm3.59375 -8.234375l4.734375 0l0 0.421875l-0.234375 0q-0.5 0 -0.75 0.21875q-0.25 0.203125 -0.25 0.53125q0 0.421875 0.375 1.1875l2.453125 5.109375l2.28125 -5.59375q0.1875 -0.453125 0.1875 -0.890625q0 -0.203125 -0.078125 -0.296875q-0.09375 -0.125 -0.28125 -0.1875q-0.1875 -0.078125 -0.65625 -0.078125l0 -0.421875l3.296875 0l0 0.421875q-0.421875 0.03125 -0.640625 0.171875q-0.21875 0.125 -0.484375 0.5q-0.09375 0.15625 -0.375 0.84375l-4.125 10.109375q-0.59375 1.484375 -1.5625 2.234375q-0.96875 0.75 -1.875 0.75q-0.640625 0 -1.0625 -0.375q-0.421875 -0.375 -0.421875 -0.859375q0 -0.46875 0.296875 -0.75q0.3125 -0.28125 0.84375 -0.28125q0.359375 0 0.984375 0.234375q0.453125 0.171875 0.5625 0.171875q0.328125 0 0.71875 -0.34375q0.390625 -0.34375 0.796875 -1.328125l0.71875 -1.75l-3.640625 -7.65625q-0.171875 -0.34375 -0.53125 -0.84375q-0.28125 -0.390625 -0.453125 -0.53125q-0.25 -0.171875 -0.828125 -0.296875l0 -0.421875zm21.507812 -4.046875l0 5.90625l2.734375 0q0.9375 0 1.375 -0.40625q0.4375 -0.421875 0.578125 -1.65625l0.40625 0l0 5.078125l-0.40625 0q-0.015625 -0.875 -0.234375 -1.28125q-0.203125 -0.40625 -0.59375 -0.609375q-0.375 -0.21875 -1.125 -0.21875l-2.734375 0l0 4.71875q0 1.140625 0.140625 1.5q0.109375 0.28125 0.46875 0.484375q0.484375 0.265625 1.015625 0.265625l0.53125 0l0 0.40625l-6.4375 0l0 -0.40625l0.53125 0q0.9375 0 1.359375 -0.546875q0.265625 -0.359375 0.265625 -1.703125l0 -9.6875q0 -1.140625 -0.140625 -1.5q-0.125 -0.28125 -0.46875 -0.484375q-0.46875 -0.265625 -1.015625 -0.265625l-0.53125 0l0 -0.40625l11.171875 0l0.140625 3.296875l-0.390625 0q-0.28125 -1.046875 -0.671875 -1.53125q-0.375 -0.5 -0.9375 -0.71875q-0.5625 -0.234375 -1.734375 -0.234375l-3.296875 0zm11.631561 3.75l0 2.28125q1.265625 -2.28125 2.609375 -2.28125q0.609375 0 1.0 0.375q0.40625 0.375 0.40625 0.859375q0 0.4375 -0.296875 0.734375q-0.28125 0.296875 -0.671875 0.296875q-0.390625 0 -0.875 -0.375q-0.484375 -0.390625 -0.703125 -0.390625q-0.203125 0 -0.4375 0.21875q-0.5 0.453125 -1.03125 1.5l0 4.84375q0 0.84375 0.21875 1.28125q0.140625 0.296875 0.5 0.5q0.359375 0.203125 1.046875 0.203125l0 0.390625l-5.1875 0l0 -0.390625q0.78125 0 1.15625 -0.25q0.28125 -0.171875 0.390625 -0.5625q0.046875 -0.1875 0.046875 -1.078125l0 -3.921875q0 -1.765625 -0.078125 -2.109375q-0.0625 -0.34375 -0.265625 -0.484375q-0.1875 -0.15625 -0.46875 -0.15625q-0.34375 0 -0.78125 0.15625l-0.109375 -0.390625l3.0625 -1.25l0.46875 0zm10.325958 8.984375q-1.5625 1.203125 -1.96875 1.390625q-0.59375 0.265625 -1.265625 0.265625q-1.046875 0 -1.734375 -0.71875q-0.671875 -0.71875 -0.671875 -1.890625q0 -0.734375 0.328125 -1.28125q0.453125 -0.75 1.578125 -1.40625q1.125 -0.671875 3.734375 -1.625l0 -0.390625q0 -1.515625 -0.484375 -2.078125q-0.484375 -0.5625 -1.40625 -0.5625q-0.6875 0 -1.09375 0.375q-0.421875 0.375 -0.421875 0.859375l0.015625 0.640625q0 0.5 -0.265625 0.78125q-0.25 0.28125 -0.671875 0.28125q-0.40625 0 -0.671875 -0.28125q-0.265625 -0.296875 -0.265625 -0.796875q0 -0.953125 0.96875 -1.75q0.984375 -0.796875 2.75 -0.796875q1.34375 0 2.203125 0.453125q0.65625 0.34375 0.96875 1.078125q0.203125 0.46875 0.203125 1.953125l0 3.4375q0 1.453125 0.046875 1.78125q0.0625 0.3125 0.1875 0.4375q0.125 0.109375 0.296875 0.109375q0.171875 0 0.296875 -0.078125q0.234375 -0.15625 0.90625 -0.8125l0 0.625q-1.25 1.65625 -2.375 1.65625q-0.53125 0 -0.859375 -0.375q-0.328125 -0.375 -0.328125 -1.28125zm0 -0.71875l0 -3.875q-1.671875 0.671875 -2.15625 0.953125q-0.875 0.484375 -1.25 1.015625q-0.375 0.53125 -0.375 1.15625q0 0.796875 0.46875 1.328125q0.484375 0.515625 1.09375 0.515625q0.84375 0 2.21875 -1.09375zm7.3215637 -6.109375q1.109375 -1.09375 1.296875 -1.265625q0.5 -0.421875 1.078125 -0.65625q0.578125 -0.234375 1.140625 -0.234375q0.953125 0 1.640625 0.5625q0.6875 0.546875 0.921875 1.59375q1.140625 -1.328125 1.921875 -1.734375q0.78125 -0.421875 1.609375 -0.421875q0.8125 0 1.4375 0.421875q0.625 0.40625 0.984375 1.359375q0.25 0.640625 0.25 2.0l0 4.359375q0 0.953125 0.140625 1.3125q0.109375 0.25 0.40625 0.421875q0.296875 0.171875 0.96875 0.171875l0 0.390625l-5.0 0l0 -0.390625l0.21875 0q0.65625 0 1.015625 -0.265625q0.25 -0.171875 0.359375 -0.5625q0.046875 -0.1875 0.046875 -1.078125l0 -4.359375q0 -1.234375 -0.296875 -1.734375q-0.421875 -0.71875 -1.375 -0.71875q-0.59375 0 -1.1875 0.296875q-0.59375 0.296875 -1.421875 1.09375l-0.03125 0.125l0.03125 0.46875l0 4.828125q0 1.046875 0.109375 1.3125q0.109375 0.25 0.421875 0.421875q0.328125 0.171875 1.109375 0.171875l0 0.390625l-5.125 0l0 -0.390625q0.84375 0 1.15625 -0.203125q0.3125 -0.203125 0.4375 -0.59375q0.0625 -0.203125 0.0625 -1.109375l0 -4.359375q0 -1.234375 -0.375 -1.78125q-0.484375 -0.703125 -1.359375 -0.703125q-0.59375 0 -1.171875 0.328125q-0.921875 0.484375 -1.421875 1.09375l0 5.421875q0 1.0 0.140625 1.296875q0.140625 0.296875 0.40625 0.453125q0.265625 0.15625 1.09375 0.15625l0 0.390625l-5.0 0l0 -0.390625q0.6875 0 0.96875 -0.15625q0.28125 -0.15625 0.421875 -0.46875q0.140625 -0.328125 0.140625 -1.28125l0 -3.859375q0 -1.671875 -0.09375 -2.15625q-0.078125 -0.375 -0.25 -0.5q-0.15625 -0.140625 -0.453125 -0.140625q-0.3125 0 -0.734375 0.15625l-0.171875 -0.390625l3.046875 -1.25l0.484375 0l0 2.15625zm16.310242 1.96875q0 2.25 1.09375 3.53125q1.109375 1.28125 2.609375 1.28125q1.0 0 1.734375 -0.546875q0.734375 -0.546875 1.234375 -1.875l0.34375 0.234375q-0.234375 1.515625 -1.359375 2.765625q-1.109375 1.234375 -2.796875 1.234375q-1.828125 0 -3.125 -1.421875q-1.296875 -1.421875 -1.296875 -3.828125q0 -2.59375 1.328125 -4.046875q1.328125 -1.453125 3.34375 -1.453125q1.703125 0 2.796875 1.125q1.109375 1.109375 1.109375 3.0l-7.015625 0zm0 -0.640625l4.703125 0q-0.0625 -0.984375 -0.234375 -1.375q-0.28125 -0.625 -0.828125 -0.96875q-0.546875 -0.359375 -1.140625 -0.359375q-0.921875 0 -1.65625 0.71875q-0.71875 0.703125 -0.84375 1.984375z" fill-rule="nonzero"/><path fill="#000000" d="m393.4959 224.98322q0.546875 0.578125 0.828125 1.15625q0.1875 0.390625 0.640625 2.09375l0.984375 -1.46875q0.375 -0.53125 0.921875 -1.0q0.5625 -0.484375 0.984375 -0.671875q0.265625 -0.109375 0.59375 -0.109375q0.46875 0 0.75 0.265625q0.28125 0.25 0.28125 0.609375q0 0.421875 -0.15625 0.578125q-0.3125 0.28125 -0.71875 0.28125q-0.234375 0 -0.5 -0.109375q-0.515625 -0.171875 -0.6875 -0.171875q-0.265625 0 -0.640625 0.3125q-0.671875 0.578125 -1.625 2.21875l0.90625 3.8125q0.203125 0.875 0.34375 1.046875q0.15625 0.171875 0.296875 0.171875q0.234375 0 0.53125 -0.265625q0.609375 -0.5 1.046875 -1.328125l0.390625 0.203125q-0.703125 1.3125 -1.765625 2.171875q-0.609375 0.484375 -1.03125 0.484375q-0.625 0 -0.984375 -0.703125q-0.234375 -0.421875 -0.96875 -3.71875q-1.71875 3.0 -2.765625 3.875q-0.671875 0.546875 -1.296875 0.546875q-0.453125 0 -0.8125 -0.328125q-0.265625 -0.234375 -0.265625 -0.640625q0 -0.375 0.25 -0.609375q0.234375 -0.25 0.59375 -0.25q0.34375 0 0.75 0.359375q0.28125 0.25 0.4375 0.25q0.140625 0 0.34375 -0.171875q0.515625 -0.421875 1.40625 -1.8125q0.90625 -1.40625 1.1875 -2.015625q-0.6875 -2.6875 -0.75 -2.84375q-0.25 -0.71875 -0.65625 -1.015625q-0.40625 -0.296875 -1.203125 -0.296875q-0.265625 0 -0.59375 0.015625l0 -0.390625l2.953125 -0.53125zm9.743408 0q0.375 0.640625 0.515625 1.203125q0.15625 0.5625 0.296875 2.203125l0.484375 5.4375q0.671875 -0.796875 1.921875 -2.515625q0.609375 -0.84375 1.515625 -2.296875q0.53125 -0.890625 0.65625 -1.234375q0.0625 -0.1875 0.0625 -0.375q0 -0.109375 -0.078125 -0.1875q-0.078125 -0.078125 -0.40625 -0.1875q-0.3125 -0.109375 -0.53125 -0.390625q-0.21875 -0.28125 -0.21875 -0.640625q0 -0.453125 0.265625 -0.734375q0.265625 -0.28125 0.671875 -0.28125q0.484375 0 0.828125 0.40625q0.34375 0.40625 0.34375 1.109375q0 0.875 -0.609375 2.0q-0.59375 1.125 -2.296875 3.453125q-1.703125 2.3125 -4.125 5.0625q-1.671875 1.890625 -2.484375 2.375q-0.796875 0.5 -1.375 0.5q-0.34375 0 -0.59375 -0.265625q-0.265625 -0.25 -0.265625 -0.59375q0 -0.4375 0.359375 -0.796875q0.359375 -0.34375 0.78125 -0.34375q0.21875 0 0.359375 0.09375q0.09375 0.0625 0.203125 0.3125q0.09375 0.265625 0.1875 0.359375q0.046875 0.046875 0.125 0.046875q0.078125 0 0.234375 -0.109375q0.609375 -0.375 1.421875 -1.1875q1.0625 -1.09375 1.5625 -1.78125l-0.609375 -7.015625q-0.15625 -1.734375 -0.46875 -2.109375q-0.3125 -0.375 -1.046875 -0.375q-0.21875 0 -0.828125 0.0625l-0.09375 -0.40625l3.234375 -0.796875z" fill-rule="nonzero"/></g></svg>